<svg width="70" height="70" viewBox="0 0 70 70" fill="none" xmlns="http://www.w3.org/2000/svg">
<path fill-rule="evenodd" clip-rule="evenodd" d="M29.6188 13.6986C26.7418 15.1795 24.388 16.4327 24.3885 16.4837C24.3898 16.6153 31.2934 20.0702 31.5385 20.0618C31.6499 20.0581 32.4585 19.6903 33.3352 19.2445L34.9295 18.4342L36.6706 19.3186L38.4117 20.2032L41.263 18.9371C45.5594 17.0293 46.0056 16.8202 45.9357 16.75C45.8429 16.6568 44.3018 15.8387 40.1209 13.6637C38.1004 12.6124 36.1392 11.5817 35.7627 11.3731C35.3863 11.1646 35.0269 10.9968 34.9641 11C34.9014 11.0033 32.4959 12.2176 29.6188 13.6986ZM17.0003 20.1556L14.0054 21.6843V28.3935C14.0054 32.0836 14.0447 35.1026 14.093 35.1026C14.141 35.1026 15.6145 34.4714 17.3674 33.6999L20.5543 32.2973V25.2254L22.1116 26.0638C23.3117 26.7093 24.5125 27.3535 25.714 27.9964L27.759 29.0905L28.6689 28.6839C29.2396 28.4285 29.8092 28.1706 30.3776 27.9102C30.8168 27.7081 31.895 27.2282 32.7734 26.8436C33.6519 26.4588 34.4651 26.0719 34.5805 25.9837C34.7336 25.8666 32.8658 24.8466 27.6719 22.211C23.7568 20.2243 20.428 18.6051 20.2744 18.6128C20.1209 18.6206 18.6476 19.3148 17.0003 20.1556ZM46.4754 20.5849C44.4357 21.4949 42.7654 22.2757 42.7635 22.3202C42.7617 22.3647 43.8734 23.0179 45.2341 23.7716C46.5947 24.5254 47.708 25.1825 47.708 25.232C47.708 25.2814 46.504 25.8579 45.0326 26.5133C43.561 27.1686 39.8414 28.8286 36.7667 30.2021L26.4642 34.8039C23.8726 35.9616 21.5366 37.0051 21.2731 37.1231C15.9796 39.491 14.5247 40.1481 14.3249 40.2609C14.1239 40.3744 14.0784 41.0341 14.0427 44.3452L14 48.2944L16.6782 49.6429L19.3563 50.9913L23.07 49.3351C25.1126 48.4243 26.7837 47.6313 26.7837 47.5729C26.7837 47.5147 26.4062 47.2716 25.9451 47.0326C25.4838 46.7936 24.5315 46.2645 23.8287 45.8567C23.1259 45.4487 22.4252 45.0745 22.2713 45.0248C22.1175 44.9753 21.9939 44.8888 21.9964 44.8323C21.999 44.776 23.6343 44.0084 25.6303 43.1264C29.507 41.4136 32.4738 40.0934 38.8431 37.2471C41.6912 35.9746 44.5397 34.7029 47.3886 33.432C49.8923 32.3152 52.8033 31.011 53.8576 30.5336L55.7743 29.6657L55.8169 25.6716L55.8598 21.6777L53.1434 20.2999C51.6493 19.5423 50.3723 18.9242 50.3053 18.9264C50.2384 18.9285 48.515 19.6747 46.4754 20.5849ZM55.0465 34.994C54.6463 35.1873 53.8556 35.549 53.2896 35.7979C52.7235 36.0467 51.6493 36.5257 50.9026 36.8624L49.5449 37.4743L49.5139 40.9808C49.4968 42.9092 49.4249 44.4786 49.3542 44.4684C49.1935 44.4448 46.6489 43.1552 44.091 41.8008C42.2448 40.8233 42.1289 40.7845 41.6951 40.9968C41.4443 41.1196 39.9453 41.7839 38.364 42.4733C36.7826 43.1627 35.4373 43.7717 35.374 43.8268C35.3109 43.8819 38.4935 45.5864 42.4466 47.615L49.6339 51.3031L52.7042 49.7336C54.3926 48.8705 55.8284 48.0832 55.8946 47.9842C56.0434 47.7615 56.0306 34.6122 55.8816 34.63C55.8227 34.637 55.4468 34.8008 55.0465 34.994ZM38.0445 50.4281C37.5119 50.6543 36.9795 50.8809 36.4472 51.1078C34.8399 51.795 35.1549 51.8178 33.2426 50.8771C31.9689 50.2505 31.4199 50.0572 31.1816 50.1511C31.0029 50.2214 29.4645 50.9054 27.7628 51.6709C26.0612 52.4364 24.6099 53.0627 24.5377 53.0627C23.8238 53.0627 25.0107 53.7634 29.5907 56.0465L34.9621 58.7237L37.2221 57.6211C38.4651 57.0147 40.9721 55.8004 42.7935 54.9226C44.6147 54.0447 46.0823 53.3036 46.0549 53.2756C46.0272 53.2478 44.5011 52.4734 42.6635 51.5548L39.3223 49.8849L38.0445 50.4281Z" fill="black"/>
</svg>
