<svg width="500" height="500" viewBox="0 0 500 500" fill="none" xmlns="http://www.w3.org/2000/svg">
<path fill-rule="evenodd" clip-rule="evenodd" d="M285.264 190.6C297.853 184.323 313.872 175.082 329.91 162.422C333.291 169.444 333.662 175.572 331.92 180.52C330.685 184.007 328.358 187.04 325.299 189.453C321.986 192.061 317.849 193.96 313.275 194.986C304.597 196.94 294.465 195.799 285.264 190.6ZM287.447 254.919L304.112 264.545C270.085 283.616 260.835 319.027 249.847 353.519C238.86 319.027 229.608 283.616 195.583 264.545L212.248 254.919C213.86 254.309 215.238 253.206 216.184 251.765C217.131 250.325 217.597 248.622 217.516 246.9C215.989 214.598 224.711 200.314 236.476 191.345C240.695 188.132 245.302 186.519 249.847 186.519C254.392 186.519 258.998 188.132 263.219 191.345C274.984 200.314 283.706 214.598 282.179 246.9C282.098 248.622 282.564 250.325 283.511 251.765C284.457 253.206 285.835 254.309 287.447 254.919ZM249.847 44C269.11 44.5172 288.421 48.2567 305.18 55.5314C316.786 60.5756 327.615 67.2385 337.42 75.206C341.849 78.8028 345.495 82.2776 349.512 86.2778C360.345 86.6523 376.177 74.6174 383.527 63.3562C370.878 104.826 313.155 153.798 273.192 172.537C273.176 172.53 273.165 172.521 273.153 172.513C265.981 167.036 257.914 164.298 249.847 164.298C241.779 164.298 233.714 167.036 226.542 172.513C226.53 172.519 226.519 172.532 226.503 172.537C186.539 153.798 128.817 104.826 116.168 63.3562C123.517 74.6174 139.349 86.6523 150.182 86.2778C154.2 82.279 157.846 78.8028 162.273 75.206C172.079 67.2385 182.908 60.5756 194.513 55.5314C211.274 48.2567 230.585 44.5172 249.847 44ZM214.429 190.6C201.842 184.323 185.822 175.082 169.785 162.422C166.404 169.444 166.033 175.572 167.774 180.52C169.01 184.007 171.337 187.04 174.394 189.453C177.709 192.061 181.846 193.96 186.42 194.986C195.098 196.94 205.229 195.799 214.429 190.6Z" fill="black"/>
<path fill-rule="evenodd" clip-rule="evenodd" d="M347.476 146.908C356.305 137.998 364.084 128.136 370.34 119.336L373.517 125.316C383.745 145.779 389.06 166.16 389.06 189.097L389.038 225.494L389.23 244.361C389.97 290.682 399.993 337.547 422.696 380.435L375.195 342.132L341.584 396.674L306.273 363.433L249.848 455L193.423 363.435L158.114 396.675L124.503 342.133L77 380.437C99.7035 337.549 109.726 290.683 110.468 244.363L110.66 225.495L110.638 189.098C110.638 166.16 115.951 145.779 126.182 125.317L129.358 119.337C135.613 128.137 143.392 137.998 152.222 146.909L149.465 152.637C144.108 163.761 142.334 176.199 146.507 188.028C149.197 195.647 154.107 202.181 160.436 207.169C166.582 212.013 173.855 215.278 181.47 216.992C186.431 218.109 191.484 218.569 196.505 218.412C195.334 225.053 194.822 231.941 194.789 238.959L149.98 264.84L184.558 284.222C187.322 285.772 189.953 287.547 192.424 289.53C220.932 315.125 238.071 390.845 249.85 427.83C261.629 390.845 278.767 315.125 307.276 289.53C309.747 287.547 312.378 285.771 315.142 284.222L349.72 264.84L304.91 238.959C304.877 231.941 304.365 225.053 303.194 218.412C308.215 218.569 313.268 218.109 318.229 216.992C325.844 215.278 333.118 212.013 339.263 207.169C345.591 202.181 350.502 195.647 353.191 188.028C357.365 176.199 355.59 163.762 350.235 152.637L347.477 146.909L347.476 146.908Z" fill="black"/>
</svg>
